<svg width="24" height="25" viewBox="0 0 24 25" fill="none" xmlns="http://www.w3.org/2000/svg">
<path d="M21 10.3184H3M16 2.31836V6.31836M8 2.31836V6.31836M7.8 22.3184H16.2C17.8802 22.3184 18.7202 22.3184 19.362 21.9914C19.9265 21.7038 20.3854 21.2448 20.673 20.6803C21 20.0386 21 19.1985 21 17.5184V9.11836C21 7.4382 21 6.59812 20.673 5.95639C20.3854 5.3919 19.9265 4.93296 19.362 4.64534C18.7202 4.31836 17.8802 4.31836 16.2 4.31836H7.8C6.11984 4.31836 5.27976 4.31836 4.63803 4.64534C4.07354 4.93296 3.6146 5.3919 3.32698 5.95639C3 6.59812 3 7.4382 3 9.11836V17.5184C3 19.1985 3 20.0386 3.32698 20.6803C3.6146 21.2448 4.07354 21.7038 4.63803 21.9914C5.27976 22.3184 6.11984 22.3184 7.8 22.3184Z" stroke="#232323" stroke-width="2" stroke-linecap="round" stroke-linejoin="round"/>
</svg>
