<svg width="24" height="25" viewBox="0 0 24 25" fill="none" xmlns="http://www.w3.org/2000/svg">
<path d="M10.7429 5.41068C11.1494 5.35059 11.5686 5.31836 12.0004 5.31836C17.1054 5.31836 20.4553 9.8232 21.5807 11.6052C21.7169 11.8209 21.785 11.9287 21.8231 12.095C21.8518 12.2199 21.8517 12.417 21.8231 12.5419C21.7849 12.7083 21.7164 12.8168 21.5792 13.0339C21.2793 13.5085 20.8222 14.1755 20.2165 14.8988M6.72432 7.0334C4.56225 8.50006 3.09445 10.5377 2.42111 11.6036C2.28428 11.8202 2.21587 11.9285 2.17774 12.0948C2.1491 12.2198 2.14909 12.4168 2.17771 12.5417C2.21583 12.708 2.28393 12.8159 2.42013 13.0315C3.54554 14.8135 6.89541 19.3184 12.0004 19.3184C14.0588 19.3184 15.8319 18.586 17.2888 17.595M3.00042 3.31836L21.0004 21.3184M9.8791 10.197C9.3362 10.7399 9.00042 11.4899 9.00042 12.3184C9.00042 13.9752 10.3436 15.3184 12.0004 15.3184C12.8288 15.3184 13.5788 14.9826 14.1217 14.4397" stroke="#9A9A9A" stroke-width="2" stroke-linecap="round" stroke-linejoin="round"/>
</svg>
