<svg width="20" height="20" viewBox="0 0 20 20" fill="none" xmlns="http://www.w3.org/2000/svg">
<path fill-rule="evenodd" clip-rule="evenodd" d="M8.30382 2.34068C7.99641 2.1194 7.56282 2.01592 7.1364 2.17194C6.222 2.5065 5.3832 2.99633 4.65175 3.609C4.30419 3.90013 4.17707 4.3267 4.21479 4.70326C4.27761 5.33059 4.16689 5.9363 3.86545 6.45839C3.56388 6.98074 3.09437 7.37963 2.51929 7.63887C2.17366 7.79468 1.86712 8.11894 1.78943 8.56675C1.70856 9.033 1.6665 9.51192 1.6665 10.0001C1.6665 10.4882 1.70856 10.9672 1.78944 11.4333C1.86713 11.8812 2.17367 12.2054 2.5193 12.3613C3.09437 12.6205 3.56388 13.0194 3.86545 13.5418C4.16688 14.0638 4.2776 14.6695 4.21479 15.2968C4.17708 15.6734 4.3042 16.1 4.65175 16.3911C5.38319 17.0038 6.22196 17.4936 7.13632 17.8281C7.56277 17.9842 7.99638 17.8807 8.30379 17.6593C8.816 17.2907 9.39642 17.0833 9.99984 17.0833C10.6033 17.0833 11.1837 17.2907 11.6959 17.6593C12.0033 17.8807 12.4369 17.9842 12.8633 17.8281C13.7777 17.4936 14.6164 17.0038 15.3478 16.3912C15.6954 16.1 15.8225 15.6734 15.7848 15.2968C15.722 14.6695 15.8327 14.0638 16.1341 13.5418C16.4357 13.0194 16.9053 12.6205 17.4803 12.3613C17.826 12.2054 18.1326 11.8812 18.2103 11.4333C18.2911 10.9672 18.3332 10.4882 18.3332 10.0001C18.3332 9.512 18.2911 9.03309 18.2103 8.56692C18.1326 8.11907 17.826 7.79479 17.4803 7.63899C16.9053 7.37974 16.4357 6.98085 16.1341 6.4585C15.8327 5.93639 15.722 5.33064 15.7848 4.70327C15.8226 4.32669 15.6954 3.90009 15.3478 3.60894C14.6164 2.9963 13.7777 2.50649 12.8633 2.17194C12.4368 2.01593 12.0033 2.1194 11.6958 2.34068C11.1837 2.70936 10.6033 2.91669 9.99984 2.91669C9.39642 2.91669 8.816 2.70936 8.30382 2.34068ZM7.49984 10C7.49984 8.61925 8.61909 7.5 9.99984 7.5C11.3806 7.5 12.4998 8.61925 12.4998 10C12.4998 11.3808 11.3806 12.5 9.99984 12.5C8.61909 12.5 7.49984 11.3808 7.49984 10Z" fill="white" fill-opacity="0.5"/>
</svg>
