<svg width="20" height="20" viewBox="0 0 20 20" fill="none" xmlns="http://www.w3.org/2000/svg">
<path fill-rule="evenodd" clip-rule="evenodd" d="M8.78121 1.80349C9.46321 1.74148 10.1382 1.96209 10.6507 2.40904L10.7753 2.52546L17.2944 9.04457C18.2317 9.98177 18.2691 11.4781 17.4068 12.4601L17.2944 12.5801L12.5803 17.2941C11.6431 18.2313 10.1468 18.2688 9.16479 17.4066L9.04479 17.2941L2.5257 10.7751C2.04142 10.2908 1.7788 9.631 1.79409 8.95118L1.80373 8.7809L2.19658 4.45973C2.30128 3.30792 3.1802 2.38538 4.31108 2.21434L4.45997 2.19633L8.78121 1.80349ZM6.68694 6.68753C6.03607 7.33841 6.03607 8.39365 6.68694 9.04457C7.33782 9.6954 8.39313 9.6954 9.04396 9.04457C9.69488 8.39365 9.69488 7.33841 9.04396 6.68753C8.39313 6.03666 7.33782 6.03666 6.68694 6.68753Z" fill="#956AFF"/>
</svg>
