<svg width="20" height="20" viewBox="0 0 20 20" fill="none" xmlns="http://www.w3.org/2000/svg">
<path fill-rule="evenodd" clip-rule="evenodd" d="M9.99984 1.66675C5.39746 1.66675 1.6665 5.39771 1.6665 10.0001C1.6665 14.6024 5.39746 18.3334 9.99984 18.3334C14.6022 18.3334 18.3332 14.6024 18.3332 10.0001C18.3332 5.39771 14.6022 1.66675 9.99984 1.66675ZM7.08317 7.08341C7.08317 5.47258 8.389 4.16675 9.99984 4.16675C11.6107 4.16675 12.9165 5.47258 12.9165 7.08341C12.9165 8.69425 11.6107 10.0001 9.99984 10.0001C8.389 10.0001 7.08317 8.69425 7.08317 7.08341ZM4.39834 13.6164C5.77228 12.4932 7.77877 11.6667 9.99984 11.6667C12.2209 11.6667 14.2274 12.4932 15.6013 13.6164C14.4139 15.452 12.3488 16.6667 9.99984 16.6667C7.65097 16.6667 5.58582 15.452 4.39834 13.6164Z" fill="#007AFF"/>
</svg>
